<?xml version="1.0" encoding="utf-8"?>
<!-- Generator: Adobe Illustrator 23.0.3, SVG Export Plug-In . SVG Version: 6.00 Build 0)  -->
<svg version="1.1" id="Capa_1" xmlns="http://www.w3.org/2000/svg" xmlns:xlink="http://www.w3.org/1999/xlink" x="0px" y="0px"
	 viewBox="0 0 21 21" style="enable-background:new 0 0 21 21;" xml:space="preserve">
<style type="text/css">
	.st0{fill:#FFFFFF;}
</style>
<path id="Trazado_43" class="st0" d="M10.46,4.01C11.6,3.97,12.73,4,13.87,4.11c0.55-0.01,1.1,0.09,1.61,0.28
	c0.71,0.33,1.28,0.9,1.61,1.61c0.19,0.51,0.29,1.06,0.28,1.61c0,0.85,0.09,1.14,0.09,3.41c0.04,1.14,0.01,2.28-0.09,3.41
	c0.01,0.55-0.09,1.1-0.28,1.61c-0.33,0.71-0.9,1.28-1.61,1.61c-0.51,0.19-1.06,0.29-1.61,0.28c-0.85,0-1.14,0.09-3.41,0.09
	c-1.14,0.04-2.28,0.01-3.41-0.09c-0.55,0.01-1.1-0.09-1.61-0.28c-0.71-0.33-1.28-0.9-1.61-1.61c-0.19-0.51-0.29-1.06-0.28-1.61
	c0-0.85-0.09-1.14-0.09-3.41C3.41,9.88,3.44,8.74,3.54,7.61C3.54,7.06,3.63,6.52,3.83,6c0.17-0.35,0.39-0.67,0.66-0.95
	c0.22-0.33,0.56-0.57,0.95-0.66C5.95,4.2,6.5,4.1,7.05,4.11C8.18,4,9.32,3.97,10.46,4.01 M10.46,2.5c-1.17-0.04-2.34-0.01-3.5,0.09
	c-0.71,0-1.42,0.13-2.08,0.38C4.3,3.16,3.78,3.48,3.36,3.92C2.92,4.34,2.6,4.86,2.41,5.43C2.11,6.08,1.98,6.8,2.03,7.52
	c-0.1,1.16-0.14,2.34-0.09,3.5c-0.04,1.17-0.01,2.34,0.09,3.5c0,0.71,0.13,1.42,0.38,2.08c0.19,0.57,0.51,1.1,0.95,1.52
	c0.42,0.43,0.94,0.76,1.52,0.95c0.67,0.25,1.37,0.38,2.08,0.38c1.17,0.1,2.34,0.14,3.5,0.09c1.17,0.04,2.34,0.01,3.5-0.09
	c0.71,0,1.42-0.13,2.08-0.38c1.16-0.4,2.06-1.31,2.46-2.46c0.25-0.67,0.38-1.37,0.38-2.08c0-0.95,0.09-1.23,0.09-3.5
	c0.04-1.17,0.01-2.34-0.09-3.5c0-0.71-0.13-1.42-0.38-2.08c-0.19-0.57-0.51-1.1-0.95-1.52c-0.42-0.43-0.94-0.76-1.52-0.95
	c-0.67-0.25-1.37-0.38-2.08-0.38C12.8,2.49,11.63,2.45,10.46,2.5 M10.46,6.66C8.09,6.62,6.14,8.51,6.1,10.88c0,0.05,0,0.09,0,0.14
	c0,2.41,1.95,4.36,4.36,4.36s4.36-1.95,4.36-4.36S12.86,6.66,10.46,6.66L10.46,6.66 M10.46,13.86c-1.54,0.03-2.81-1.2-2.84-2.74
	c0-0.03,0-0.07,0-0.1c-0.03-1.54,1.2-2.81,2.74-2.84c0.03,0,0.07,0,0.1,0c1.54-0.03,2.81,1.2,2.84,2.74c0,0.03,0,0.07,0,0.1
	c0.03,1.54-1.2,2.81-2.74,2.84C10.53,13.86,10.49,13.86,10.46,13.86 M15,5.43c-0.58,0-1.04,0.47-1.04,1.04
	c0,0.58,0.47,1.04,1.04,1.04c0.58,0,1.04-0.47,1.04-1.04C16.04,5.9,15.58,5.44,15,5.43"/>
</svg>
