<?xml version="1.0" encoding="utf-8"?>
<!-- Generator: Adobe Illustrator 23.0.3, SVG Export Plug-In . SVG Version: 6.00 Build 0)  -->
<svg version="1.1" id="Capa_1" xmlns="http://www.w3.org/2000/svg" xmlns:xlink="http://www.w3.org/1999/xlink" x="0px" y="0px"
	 viewBox="0 0 21 21" style="enable-background:new 0 0 21 21;" xml:space="preserve">
<style type="text/css">
	.st0{fill-rule:evenodd;clip-rule:evenodd;fill:#FF5E60;}
</style>
<path id="Trazado_42" class="st0" d="M7.7,17.29c5.75,0.05,10.45-4.57,10.5-10.31c0-0.06,0-0.13,0-0.19v-0.5
	c0.7-0.53,1.31-1.17,1.8-1.9c-0.67,0.29-1.38,0.49-2.1,0.6c0.74-0.47,1.31-1.17,1.6-2c-0.72,0.4-1.5,0.7-2.3,0.9
	c-0.69-0.77-1.67-1.21-2.7-1.2c-2.03,0.03-3.67,1.67-3.7,3.7c-0.02,0.27,0.01,0.54,0.1,0.8c-2.98-0.14-5.75-1.57-7.6-3.9
	c-0.33,0.58-0.5,1.23-0.5,1.9c0.03,1.22,0.62,2.37,1.6,3.1C3.8,8.27,3.21,8.1,2.7,7.78l0,0c0,1.77,1.26,3.28,3,3.6
	c-0.33,0.09-0.66,0.12-1,0.1c-0.24,0.02-0.48-0.02-0.7-0.1c0.5,1.52,1.9,2.56,3.5,2.6c-1.31,1.03-2.93,1.59-4.6,1.6
	c-0.3,0.02-0.61-0.02-0.9-0.1C3.65,16.69,5.65,17.32,7.7,17.29"/>
</svg>
